<svg version="1.1" xmlns="http://www.w3.org/2000/svg" xmlns:xlink="http://www.w3.org/1999/xlink" width="350" height="350"><defs><clipPath id="WTvqurvAqLDT"><path fill="none" stroke="none" d=" M 5 44 L 345 44 L 345 345 L 5 345 L 5 44 Z"/></clipPath><clipPath id="wsiitGnxuLPg"><path fill="none" stroke="none" d=" M 5 44 L 345 44 L 345 345 L 5 345 L 5 44 Z"/></clipPath><clipPath id="MtuiEAIDAJqt"><path fill="none" stroke="none" d=" M 5 44 L 345 44 L 345 345 L 5 345 L 5 44 Z"/></clipPath><clipPath id="FZUrfqwvAAoA"><path fill="none" stroke="none" d=" M 5 44 L 345 44 L 345 345 L 5 345 L 5 44 Z"/></clipPath></defs><g transform="scale(1,1) translate(0.5,0.5)"><rect fill="#ffffff" stroke="none" x="0" y="0" width="350" height="350"/><rect fill="#FFFFFF" stroke="none" x="5" y="44" width="340" height="301"/><rect fill="#ffffff" stroke="none" x="5" y="44" width="340" height="301"/><g clip-path="url(#WTvqurvAqLDT)"><g><g/></g></g><g clip-path="url(#wsiitGnxuLPg)"><g><g/></g></g><g clip-path="url(#MtuiEAIDAJqt)"><g><g><path fill="none" stroke="none"/><path fill="thistle" stroke="white" paint-order="fill stroke markers" d=" M 311 194.5 A 136 136 0 1 0 121.14220959355535 319.38129728880733 L 175 194.5 Z" stroke-linejoin="bevel" stroke-miterlimit="10"/><path fill="lightblue" stroke="white" paint-order="fill stroke markers" d=" M 121.14220959355535 319.38129728880733 A 136 136 0 0 0 310.8498826178792 200.88822296953182 L 175 194.5 Z" stroke-linejoin="bevel" stroke-miterlimit="10"/></g></g></g><g clip-path="url(#FZUrfqwvAAoA)"><g><g><path fill="none" stroke="none"/><g transform="translate(107,134.3) rotate(0,0,0)"><text fill="black" stroke="none" font-family="helvetica" font-size="15px" font-style="normal" font-weight="normal" text-decoration="normal" x="0" y="0" text-anchor="start" dominant-baseline="text-before-edge">Credit card:</text><text fill="black" stroke="none" font-family="helvetica" font-size="15px" font-style="normal" font-weight="normal" text-decoration="normal" x="0" y="21.599999999999998" text-anchor="start" dominant-baseline="text-before-edge">   248 M</text><text fill="black" stroke="none" font-family="helvetica" font-size="15px" font-style="normal" font-weight="normal" text-decoration="normal" x="0" y="43.199999999999996" text-anchor="start" dominant-baseline="text-before-edge">   69%</text></g><g transform="translate(198.8,239.65) rotate(0,0,0)"><text fill="black" stroke="none" font-family="helvetica" font-size="15px" font-style="normal" font-weight="normal" text-decoration="normal" x="0" y="0" text-anchor="start" dominant-baseline="text-before-edge">Cash:</text><text fill="black" stroke="none" font-family="helvetica" font-size="15px" font-style="normal" font-weight="normal" text-decoration="normal" x="0" y="21.599999999999998" text-anchor="start" dominant-baseline="text-before-edge">   111 M</text><text fill="black" stroke="none" font-family="helvetica" font-size="15px" font-style="normal" font-weight="normal" text-decoration="normal" x="0" y="43.199999999999996" text-anchor="start" dominant-baseline="text-before-edge">   31%</text></g></g></g></g><g/><g/><g><g fill="#444444"><path fill="" stroke="none" d=""/><g transform="translate(5,39)"><path fill="none" stroke="none"/><text fill="" stroke="none" font-family="helvetica" font-size="20px" font-style="normal" font-weight="bold" text-decoration="normal" x="0" y="0" text-anchor="start" dominant-baseline="text-after-edge">Payment Type</text></g></g></g></g></svg>