<?xml version="1.0" encoding="UTF-8" standalone="no"?>

<svg
   xmlns="http://www.w3.org/2000/svg"
   width="32"
   height="32"
   viewBox="0 0 8.4666672 8.4666672"
   version="1.1"
   id="svg33">
  <defs
     id="defs27" />
  <g
     id="layer1"
     transform="translate(0,-288.53332)">
    <path
       style="opacity:1;fill:#fc3a00;fill-opacity:0.94117647;stroke-width:0.04410193"
       d="M 4.233291,288.53332 A 4.2333548,4.233312 0 0 0 0,292.76666 a 4.2333548,4.233312 0 0 0 0.819938,2.49545 l 1.520405,-1.51944 a 2.1303205,2.130299 0 0 1 -0.237307,-0.97601 2.1303205,2.130299 0 0 1 2.130255,-2.13032 2.1303205,2.130299 0 0 1 0.976104,0.23894 l 1.521783,-1.52082 a 4.2333548,4.233312 0 0 0 -2.497887,-0.82114 z m 3.4134373,1.73797 -1.5204043,1.51944 a 2.1303205,2.130299 0 0 1 0.2373072,0.97593 2.1303205,2.130299 0 0 1 -2.1303402,2.13032 2.1303205,2.130299 0 0 1 -0.976106,-0.23895 l -1.521696,1.52074 a 4.2333548,4.233312 0 0 0 2.497802,0.82122 4.2333548,4.233312 0 0 0 4.2333757,-4.23333 4.2333548,4.233312 0 0 0 -0.8199384,-2.49537 z"
       id="path825" />
  </g>
</svg>
